<svg width="50" height="50" viewBox="0 0 50 50" fill="none" xmlns="http://www.w3.org/2000/svg">
<path d="M5.86105 32.2222L3.22217 43.6111C3.13113 44.0274 3.13425 44.4588 3.2313 44.8738C3.32835 45.2888 3.51686 45.6768 3.78309 46.0096C4.04931 46.3424 4.38651 46.6115 4.77005 46.7972C5.15359 46.983 5.57379 47.0808 5.99994 47.0833C6.19851 47.1034 6.3986 47.1034 6.59717 47.0833L18.0555 44.4444L40.0555 22.5278L27.7777 10.2778L5.86105 32.2222Z" fill="#53B38D"/>
<path d="M46.9722 11.5555L38.7777 3.3611C38.239 2.82508 37.5099 2.52417 36.75 2.52417C35.99 2.52417 35.2609 2.82508 34.7222 3.3611L30.1666 7.91665L42.4305 20.1805L46.9861 15.625C47.2527 15.357 47.4638 15.0392 47.6074 14.6895C47.751 14.3399 47.8243 13.9654 47.823 13.5874C47.8217 13.2094 47.7459 12.8354 47.5999 12.4867C47.4539 12.1381 47.2406 11.8217 46.9722 11.5555V11.5555Z" fill="#53B38D"/>
</svg>
