<svg width="37" height="37" viewBox="0 0 37 37" fill="none" xmlns="http://www.w3.org/2000/svg">
<path d="M7.70833 4.625H29.2917C30.1094 4.625 30.8937 4.94985 31.4719 5.52809C32.0501 6.10632 32.375 6.89058 32.375 7.70833V29.2917C32.375 30.1094 32.0501 30.8937 31.4719 31.4719C30.8937 32.0501 30.1094 32.375 29.2917 32.375H7.70833C6.89058 32.375 6.10632 32.0501 5.52809 31.4719C4.94985 30.8937 4.625 30.1094 4.625 29.2917V7.70833C4.625 6.89058 4.94985 6.10632 5.52809 5.52809C6.10632 4.94985 6.89058 4.625 7.70833 4.625ZM27.75 7.70833H23.8958C22.4648 7.70833 21.0923 8.27682 20.0804 9.28874C19.0685 10.3007 18.5 11.6731 18.5 13.1042V16.9583H15.4167V21.5833H18.5V32.375H23.125V21.5833H27.75V16.9583H23.125V13.875C23.125 13.4661 23.2874 13.074 23.5765 12.7849C23.8657 12.4958 24.2578 12.3333 24.6667 12.3333H27.75V7.70833Z" fill="#53B38D"/>
</svg>
