<svg width="29" height="29" viewBox="0 0 29 29" fill="none" xmlns="http://www.w3.org/2000/svg">
<path d="M3.70833 0.625H25.2917C26.1094 0.625 26.8937 0.94985 27.4719 1.52809C28.0501 2.10632 28.375 2.89058 28.375 3.70833V25.2917C28.375 26.1094 28.0501 26.8937 27.4719 27.4719C26.8937 28.0501 26.1094 28.375 25.2917 28.375H3.70833C2.89058 28.375 2.10632 28.0501 1.52809 27.4719C0.94985 26.8937 0.625 26.1094 0.625 25.2917V3.70833C0.625 2.89058 0.94985 2.10632 1.52809 1.52809C2.10632 0.94985 2.89058 0.625 3.70833 0.625ZM23.75 3.70833H19.8958C18.4648 3.70833 17.0923 4.27682 16.0804 5.28874C15.0685 6.30065 14.5 7.6731 14.5 9.10417V12.9583H11.4167V17.5833H14.5V28.375H19.125V17.5833H23.75V12.9583H19.125V9.875C19.125 9.46612 19.2874 9.074 19.5765 8.78488C19.8657 8.49576 20.2578 8.33333 20.6667 8.33333H23.75V3.70833Z" fill="#53B38D"/>
</svg>
