<svg width="35" height="35" viewBox="0 0 35 35" fill="none" xmlns="http://www.w3.org/2000/svg">
<g clip-path="url(#clip0_32_15)">
<path d="M17.5078 8.65604C12.5391 8.65604 8.53124 12.6012 8.53124 17.4923C8.53124 22.3834 12.5391 26.3286 17.5078 26.3286C22.4766 26.3286 26.4843 22.3834 26.4843 17.4923C26.4843 12.6012 22.4766 8.65604 17.5078 8.65604ZM17.5078 23.237C14.2969 23.237 11.6719 20.6608 11.6719 17.4923C11.6719 14.3239 14.2891 11.7476 17.5078 11.7476C20.7266 11.7476 23.3437 14.3239 23.3437 17.4923C23.3437 20.6608 20.7187 23.237 17.5078 23.237ZM28.9452 8.29458C28.9452 9.44045 28.0079 10.3556 26.8516 10.3556C25.6874 10.3556 24.7577 9.43278 24.7577 8.29458C24.7577 7.1564 25.6953 6.23356 26.8516 6.23356C28.0079 6.23356 28.9452 7.1564 28.9452 8.29458ZM34.8906 10.3864C34.7579 7.62551 34.1171 5.17997 32.0624 3.16506C30.0156 1.15018 27.5312 0.519563 24.7266 0.381135C21.8359 0.219635 13.1719 0.219635 10.2812 0.381135C7.48437 0.511871 5.00001 1.14249 2.94531 3.15739C0.890625 5.17227 0.257812 7.61783 0.117187 10.3787C-0.0468749 13.2241 -0.0468749 21.7528 0.117187 24.5983C0.250001 27.3591 0.890625 29.8047 2.94531 31.8196C5.00001 33.8346 7.47656 34.4652 10.2812 34.6035C13.1719 34.7651 21.8359 34.7651 24.7266 34.6035C27.5312 34.4729 30.0156 33.8422 32.0624 31.8196C34.1093 29.8047 34.75 27.3591 34.8906 24.5983C35.0547 21.7528 35.0547 13.2318 34.8906 10.3864ZM31.1561 27.6514C30.5469 29.1588 29.3672 30.3199 27.8281 30.9276C25.5233 31.8273 20.0547 31.6197 17.5078 31.6197C14.9609 31.6197 9.48436 31.8196 7.18751 30.9276C5.65626 30.3276 4.47656 29.1664 3.85938 27.6514C2.94531 25.3827 3.15625 19.9994 3.15625 17.4923C3.15625 14.9853 2.95312 9.59426 3.85938 7.33328C4.46875 5.82596 5.64842 4.6647 7.18751 4.05715C9.49219 3.15739 14.9609 3.36502 17.5078 3.36502C20.0547 3.36502 25.5312 3.16506 27.8281 4.05715C29.3593 4.657 30.539 5.81826 31.1561 7.33328C32.0703 9.60196 31.8594 14.9853 31.8594 17.4923C31.8594 19.9994 32.0703 25.3904 31.1561 27.6514Z" fill="#53B38D"/>
</g>
<defs>
<clipPath id="clip0_32_15">
<rect width="35" height="35" fill="white"/>
</clipPath>
</defs>
</svg>
