<svg width="148" height="44" viewBox="0 0 148 44" fill="none" xmlns="http://www.w3.org/2000/svg">
<path d="M12 13.0526V9.78948C12 9.04113 12.13 8.33846 12.39 7.68148C12.65 7.01362 13.01 6.43495 13.468 5.94766C13.916 5.44948 14.448 5.0579 15.062 4.77509C15.666 4.49229 16.312 4.35088 17 4.35088C17.562 4.35088 18.098 4.4466 18.61 4.64022C19.122 4.83383 19.59 5.10576 20.016 5.45601C20.871 4.73902 21.9204 4.35039 23 4.35088C23.9854 4.3461 24.9499 4.66022 25.7708 5.25329C26.5917 5.84636 27.2319 6.69159 27.61 7.68148C27.87 8.33846 28 9.04113 28 9.78948V13.0526H30C30.5304 13.0526 31.0391 13.2818 31.4142 13.6898C31.7893 14.0978 32 14.6511 32 15.2281V32.6316C32 33.5387 31.844 34.3872 31.532 35.1812C31.22 35.9622 30.792 36.654 30.25 37.2544C29.89 37.6373 29.496 37.9679 29.062 38.2464L27.882 37.6895L26.892 37.2087L26.468 36.9542L26.024 36.5952L25.542 36.134L25.006 35.5119C24.3508 34.7227 23.9918 33.6949 24 32.6316V13.0526H26V9.78948C26 9.33699 25.922 8.9106 25.766 8.51467C25.5396 7.92116 25.1553 7.41477 24.6625 7.06049C24.1696 6.7062 23.5907 6.52019 23 6.52632C22.386 6.52632 21.834 6.71341 21.344 7.08759C21.775 7.91081 22.0011 8.84211 22 9.78948V32.6316C21.9915 34.2394 22.5383 35.7921 23.532 36.9825L24.15 37.7004L24.766 38.2877L25.384 38.7881L26 39.1579H14C12.4127 39.1575 10.8903 38.4731 9.76598 37.2544C9.2172 36.6588 8.7774 35.9553 8.46998 35.1812C8.15401 34.3755 7.99402 33.5075 7.99998 32.6316V15.2281C7.99998 14.6511 8.21069 14.0978 8.58576 13.6898C8.96084 13.2818 9.46954 13.0526 9.99998 13.0526H12ZM14 13.0526H20V9.78948C20 9.33699 19.922 8.9106 19.766 8.51467C19.5396 7.92116 19.1553 7.41477 18.6625 7.06049C18.1696 6.7062 17.5907 6.52019 17 6.52632C16.584 6.52632 16.192 6.61116 15.828 6.78085C15.2823 7.02709 14.8168 7.44508 14.4911 7.98115C14.1654 8.51723 13.9943 9.14694 14 9.78948V13.0526Z" fill="#53B38D"/>
<path d="M39.9742 12.704H43.7182V32.416H55.2062V36H39.9742V12.704ZM58.2744 29.088C58.2744 27.7227 58.5944 26.496 59.2344 25.408C59.8744 24.2987 60.7704 23.4347 61.9224 22.816C63.0958 22.176 64.4184 21.856 65.8904 21.856C67.4051 21.856 68.7171 22.176 69.8264 22.816C70.9571 23.4347 71.8318 24.2987 72.4504 25.408C73.0691 26.496 73.3784 27.7227 73.3784 29.088C73.3784 30.4533 73.0691 31.6907 72.4504 32.8C71.8318 33.888 70.9571 34.752 69.8264 35.392C68.7171 36.032 67.3944 36.352 65.8584 36.352C64.4078 36.352 63.1064 36.064 61.9544 35.488C60.8024 34.8907 59.8958 34.048 59.2344 32.96C58.5944 31.872 58.2744 30.5813 58.2744 29.088ZM61.8904 29.12C61.8904 29.9093 62.0611 30.6347 62.4024 31.296C62.7438 31.936 63.2131 32.448 63.8104 32.832C64.4078 33.216 65.0691 33.408 65.7944 33.408C66.5838 33.408 67.2664 33.216 67.8424 32.832C68.4398 32.448 68.8984 31.936 69.2184 31.296C69.5598 30.6347 69.7304 29.9093 69.7304 29.12C69.7304 28.3093 69.5598 27.584 69.2184 26.944C68.8984 26.2827 68.4398 25.76 67.8424 25.376C67.2664 24.992 66.5838 24.8 65.7944 24.8C65.0478 24.8 64.3758 25.0027 63.7784 25.408C63.2024 25.792 62.7438 26.304 62.4024 26.944C62.0611 27.584 61.8904 28.3093 61.8904 29.12ZM77.6244 42.528L75.5444 40.288C76.1418 39.7973 76.6111 39.1893 76.9524 38.464C77.3151 37.7387 77.4964 36.8747 77.4964 35.872V22.464H81.0804V36.032C81.0804 37.6107 80.8138 38.9227 80.2804 39.968C79.7471 41.0347 78.8618 41.888 77.6244 42.528ZM77.2724 17.632C77.2724 17.0773 77.4858 16.6187 77.9124 16.256C78.3604 15.8933 78.8404 15.712 79.3524 15.712C79.8644 15.712 80.3231 15.8933 80.7284 16.256C81.1551 16.6187 81.3684 17.0773 81.3684 17.632C81.3684 18.1867 81.1551 18.6453 80.7284 19.008C80.3231 19.3493 79.8644 19.52 79.3524 19.52C78.8404 19.52 78.3604 19.3387 77.9124 18.976C77.4858 18.6133 77.2724 18.1653 77.2724 17.632ZM85.9257 22.464H89.5097V36H85.9257V22.464ZM85.7657 17.632C85.7657 17.0773 85.979 16.6187 86.4057 16.256C86.8537 15.8933 87.3337 15.712 87.8457 15.712C88.3577 15.712 88.8163 15.8933 89.2217 16.256C89.6483 16.6187 89.8617 17.0773 89.8617 17.632C89.8617 18.1867 89.6483 18.6453 89.2217 19.008C88.8163 19.3493 88.3577 19.52 87.8457 19.52C87.3337 19.52 86.8537 19.3387 86.4057 18.976C85.979 18.6133 85.7657 18.1653 85.7657 17.632ZM97.6577 22.464L97.9777 25.376L97.8497 24.992C98.319 24.0533 99.0123 23.3067 99.9297 22.752C100.868 22.176 101.978 21.888 103.258 21.888C104.538 21.888 105.594 22.2613 106.426 23.008C107.258 23.7547 107.684 24.736 107.706 25.952V36H104.122V27.232C104.1 26.5493 103.908 26.0053 103.546 25.6C103.183 25.1733 102.607 24.9493 101.818 24.928C101.092 24.928 100.442 25.152 99.8657 25.6C99.2897 26.0267 98.831 26.624 98.4897 27.392C98.1697 28.1387 98.0097 29.0027 98.0097 29.984V36H94.4257V22.464H97.6577ZM112.644 36V11.04H116.164V25.44L116.1 24.896C116.57 24.0213 117.263 23.3067 118.18 22.752C119.098 22.176 120.196 21.888 121.476 21.888C122.756 21.888 123.812 22.2613 124.644 23.008C125.476 23.7547 125.903 24.736 125.924 25.952V36H122.34V27.232C122.319 26.5493 122.127 26.0053 121.764 25.6C121.402 25.1733 120.826 24.9493 120.036 24.928C119.311 24.928 118.66 25.152 118.084 25.6C117.508 26.048 117.05 26.656 116.708 27.424C116.388 28.1707 116.228 29.024 116.228 29.984V36H112.644ZM136.559 36.352C135.279 36.352 134.117 36.0853 133.071 35.552C132.047 35.0187 131.237 34.2293 130.639 33.184C130.042 32.1173 129.743 30.8053 129.743 29.248C129.743 27.712 130.053 26.4 130.671 25.312C131.311 24.2027 132.143 23.3493 133.167 22.752C134.213 22.1547 135.343 21.856 136.559 21.856C137.861 21.856 138.906 22.112 139.695 22.624C140.506 23.136 141.135 23.744 141.583 24.448L141.391 24.96L141.743 22.464H145.039V36H141.455V32.704L141.807 33.568C141.722 33.696 141.551 33.9093 141.295 34.208C141.039 34.4853 140.687 34.7947 140.239 35.136C139.791 35.4773 139.258 35.7653 138.639 36C138.042 36.2347 137.349 36.352 136.559 36.352ZM137.551 33.408C138.191 33.408 138.767 33.2907 139.279 33.056C139.813 32.8213 140.261 32.4907 140.623 32.064C141.007 31.6373 141.285 31.1253 141.455 30.528V27.584C141.285 27.0293 141.007 26.5493 140.623 26.144C140.239 25.7173 139.77 25.3867 139.215 25.152C138.682 24.9173 138.085 24.8 137.423 24.8C136.698 24.8 136.026 24.9813 135.407 25.344C134.789 25.7067 134.287 26.208 133.903 26.848C133.541 27.488 133.359 28.224 133.359 29.056C133.359 29.8667 133.551 30.6027 133.935 31.264C134.319 31.9253 134.831 32.448 135.471 32.832C136.111 33.216 136.805 33.408 137.551 33.408Z" fill="#275845"/>
</svg>
