<svg width="32" height="33" viewBox="0 0 32 33" fill="none" xmlns="http://www.w3.org/2000/svg">
<path d="M0 28.4916C0 29.5524 0.421427 30.5699 1.17157 31.32C1.92172 32.0701 2.93913 32.4916 4 32.4916H28C29.0609 32.4916 30.0783 32.0701 30.8284 31.32C31.5786 30.5699 32 29.5524 32 28.4916V4.49158C32 3.43071 31.5786 2.4133 30.8284 1.66315C30.0783 0.913005 29.0609 0.491577 28 0.491577L4 0.491577C2.93913 0.491577 1.92172 0.913005 1.17157 1.66315C0.421427 2.4133 0 3.43071 0 4.49158L0 28.4916ZM9 15.4916H20.586L16.292 11.1996C16.1042 11.0118 15.9987 10.7571 15.9987 10.4916C15.9987 10.226 16.1042 9.97135 16.292 9.78358C16.4798 9.5958 16.7344 9.49031 17 9.49031C17.2656 9.49031 17.5202 9.5958 17.708 9.78358L23.708 15.7836C23.8011 15.8765 23.875 15.9868 23.9254 16.1083C23.9758 16.2298 24.0018 16.36 24.0018 16.4916C24.0018 16.6231 23.9758 16.7534 23.9254 16.8748C23.875 16.9963 23.8011 17.1067 23.708 17.1996L17.708 23.1996C17.5202 23.3874 17.2656 23.4928 17 23.4928C16.7344 23.4928 16.4798 23.3874 16.292 23.1996C16.1042 23.0118 15.9987 22.7571 15.9987 22.4916C15.9987 22.226 16.1042 21.9713 16.292 21.7836L20.586 17.4916H9C8.73478 17.4916 8.48043 17.3862 8.29289 17.1987C8.10536 17.0111 8 16.7568 8 16.4916C8 16.2264 8.10536 15.972 8.29289 15.7845C8.48043 15.5969 8.73478 15.4916 9 15.4916Z" fill="#53B38D"/>
</svg>
