<svg width="32" height="33" viewBox="0 0 32 33" fill="none" xmlns="http://www.w3.org/2000/svg">
<path d="M32 28.4916C32 29.5524 31.5786 30.5699 30.8284 31.32C30.0783 32.0701 29.0609 32.4916 28 32.4916H4C2.93913 32.4916 1.92172 32.0701 1.17157 31.32C0.421427 30.5699 0 29.5524 0 28.4916V4.49158C0 3.43071 0.421427 2.4133 1.17157 1.66315C1.92172 0.913005 2.93913 0.491577 4 0.491577L28 0.491577C29.0609 0.491577 30.0783 0.913005 30.8284 1.66315C31.5786 2.4133 32 3.43071 32 4.49158V28.4916ZM23 15.4916H11.414L15.708 11.1996C15.8958 11.0118 16.0013 10.7571 16.0013 10.4916C16.0013 10.226 15.8958 9.97135 15.708 9.78358C15.5202 9.5958 15.2656 9.49031 15 9.49031C14.7344 9.49031 14.4798 9.5958 14.292 9.78358L8.292 15.7836C8.19887 15.8765 8.12499 15.9868 8.07457 16.1083C8.02416 16.2298 7.99821 16.36 7.99821 16.4916C7.99821 16.6231 8.02416 16.7534 8.07457 16.8748C8.12499 16.9963 8.19887 17.1067 8.292 17.1996L14.292 23.1996C14.4798 23.3874 14.7344 23.4928 15 23.4928C15.2656 23.4928 15.5202 23.3874 15.708 23.1996C15.8958 23.0118 16.0013 22.7571 16.0013 22.4916C16.0013 22.226 15.8958 21.9713 15.708 21.7836L11.414 17.4916H23C23.2652 17.4916 23.5196 17.3862 23.7071 17.1987C23.8946 17.0111 24 16.7568 24 16.4916C24 16.2264 23.8946 15.972 23.7071 15.7845C23.5196 15.5969 23.2652 15.4916 23 15.4916Z" fill="#53B38D"/>
</svg>
