<svg width="35" height="29" viewBox="0 0 35 29" fill="none" xmlns="http://www.w3.org/2000/svg">
<g clip-path="url(#clip0_32_17)">
<path d="M31.4023 7.37122C31.4244 7.68213 31.4244 7.99309 31.4244 8.30398C31.4244 17.7868 24.2068 28.7132 11.0152 28.7132C6.95113 28.7132 3.17577 27.5362 0 25.493C0.577432 25.5597 1.13258 25.5819 1.73223 25.5819C5.0856 25.5819 8.17256 24.4494 10.6377 22.5172C7.48411 22.4506 4.84134 20.3852 3.9308 17.5426C4.375 17.6091 4.81913 17.6536 5.28554 17.6536C5.92956 17.6536 6.57364 17.5647 7.17322 17.4093C3.88643 16.743 1.42126 13.856 1.42126 10.3693V10.2805C2.37617 10.8135 3.48667 11.1466 4.66361 11.191C2.73151 9.90291 1.46569 7.70434 1.46569 5.21701C1.46569 3.88455 1.82095 2.66311 2.44283 1.59711C5.97393 5.9499 11.2817 8.79249 17.2334 9.10345C17.1223 8.57044 17.0557 8.01531 17.0557 7.46008C17.0557 3.50701 20.2537 0.286865 24.2289 0.286865C26.2942 0.286865 28.1597 1.15298 29.47 2.5521C31.0911 2.24119 32.6458 1.64154 34.0227 0.819863C33.4896 2.4855 32.357 3.88463 30.8692 4.77288C32.3128 4.6175 33.7118 4.21767 34.9998 3.66252C34.0229 5.08378 32.8014 6.3496 31.4023 7.37122Z" fill="#53B38D"/>
</g>
<defs>
<clipPath id="clip0_32_17">
<rect width="35" height="28.6364" fill="white" transform="translate(0 0.181885)"/>
</clipPath>
</defs>
</svg>
