<svg width="23" height="32" viewBox="0 0 23 32" fill="none" xmlns="http://www.w3.org/2000/svg">
<path d="M4.03224 7.99999V4.99999C4.03224 4.31199 4.15176 3.66599 4.39079 3.06199C4.62982 2.44799 4.96079 1.91599 5.38186 1.46799C5.79373 1.00999 6.28282 0.649988 6.84731 0.389988C7.4026 0.129988 7.9965 -1.16387e-05 8.62902 -1.16387e-05C9.14569 -1.16387e-05 9.63847 0.0879881 10.1092 0.265988C10.5799 0.443988 11.0101 0.693988 11.4018 1.01599C12.1879 0.356819 13.1526 -0.000464444 14.1451 -1.16387e-05C15.0511 -0.0044052 15.9379 0.284382 16.6925 0.829624C17.4472 1.37487 18.0358 2.15193 18.3834 3.06199C18.6224 3.66599 18.7419 4.31199 18.7419 4.99999V7.99999H20.5806C21.0683 7.99999 21.536 8.2107 21.8808 8.58578C22.2256 8.96085 22.4193 9.46956 22.4193 9.99999V26C22.4193 26.834 22.2759 27.614 21.9891 28.344C21.7022 29.062 21.3088 29.698 20.8105 30.25C20.4795 30.602 20.1173 30.906 19.7183 31.162L18.6334 30.65L17.7233 30.208L17.3335 29.974L16.9253 29.644L16.4821 29.22L15.9894 28.648C15.387 27.9225 15.057 26.9775 15.0645 26V7.99999H16.9032V4.99999C16.9032 4.58399 16.8315 4.19199 16.6881 3.82799C16.4799 3.28234 16.1267 2.81679 15.6736 2.49107C15.2205 2.16536 14.6882 1.99435 14.1451 1.99999C13.5807 1.99999 13.0732 2.17199 12.6227 2.51599C13.019 3.27282 13.2268 4.12902 13.2258 4.99999V26C13.218 27.4782 13.7207 28.9056 14.6342 30L15.2024 30.66L15.7687 31.2L16.3369 31.66L16.9032 32H5.87095C4.41171 31.9997 3.01204 31.3704 1.9784 30.25C1.47388 29.7024 1.06955 29.0556 0.78692 28.344C0.496438 27.6032 0.349349 26.8053 0.354823 26V9.99999C0.354823 9.46956 0.548544 8.96085 0.893369 8.58578C1.23819 8.2107 1.70588 7.99999 2.19353 7.99999H4.03224ZM5.87095 7.99999H11.3871V4.99999C11.3871 4.58399 11.3154 4.19199 11.172 3.82799C10.9638 3.28234 10.6105 2.81679 10.1574 2.49107C9.70434 2.16536 9.1721 1.99435 8.62902 1.99999C8.24656 1.99999 7.88618 2.07799 7.55153 2.23399C7.04989 2.46038 6.62188 2.84465 6.32243 3.33749C6.02299 3.83034 5.86577 4.40927 5.87095 4.99999V7.99999Z" fill="#53B38D"/>
</svg>
